<svg width="50" height="50" viewBox="0 0 50 50" fill="none" xmlns="http://www.w3.org/2000/svg">
<circle cx="25" cy="25" r="25" fill="#2B4769"/>
<g filter="url(#filter0_i_221_337)">
<path d="M16.2 29.0926C16.2 30.0259 16 30.8126 15.6 31.4526C15.2133 32.1059 14.5533 32.7392 13.62 33.3526L13.4 33.1326V33.0126C14.2533 32.4526 14.8667 31.8726 15.24 31.2726C15.6133 30.6726 15.8 29.9592 15.8 29.1326V19.0526H13.24L13.16 18.9726L13.22 18.6526H16.2V29.0926ZM36.9928 31.0726L36.9128 31.3926H31.3128V18.6526H31.7128V30.9926H36.9328L36.9928 31.0726Z" fill="#2B4769"/>
<path d="M25.6539 37.1495C26.0368 34.5778 25.9825 32.036 24.9612 29.5851C24.7975 32.1374 24.9674 34.6611 25.6539 37.1495ZM20.9232 23.6037C20.7915 23.2654 20.6606 22.9268 20.5245 22.5759C19.8772 22.1648 18.9787 21.9286 19.0004 20.7893C19.1959 20.2594 19.4477 20.4906 19.6592 20.5959C19.7734 20.6529 20.1596 21.3403 20.1353 21.3961C20.1513 21.4022 20.1676 21.4069 20.1837 21.4116C20.1917 21.3506 20.1039 21.1822 20.1033 20.5044C20.103 20.1297 19.7265 18.7513 20.2872 18.783C20.7401 18.844 20.6654 19.3756 20.5633 19.9516C20.5301 19.9469 20.3952 20.5179 20.3622 20.5126C20.4132 20.7588 20.3714 21.0812 20.4417 21.4204C20.5654 20.6978 20.7828 20.4486 21.1278 20.3389C21.1984 20.316 21.3918 20.4284 21.4402 20.4841C21.9365 21.051 21.1566 21.7508 20.8256 22.4165C20.984 22.7871 21.1611 23.2014 21.3901 23.7381C21.5526 23.1008 21.2747 21.845 22.0575 22.1305C22.972 22.4629 21.9394 23.6403 21.8083 24.4094C22.0907 24.7858 22.3956 25.1931 22.7709 25.6951C22.7709 25.01 22.4642 24.3574 22.7709 23.9214C23.0666 23.5013 23.4356 23.998 23.4712 24.3049C23.5578 25.0487 23.5905 25.7984 23.6578 26.7276C23.8681 27.0278 24.2007 27.5007 24.5886 28.0529C24.6762 26.9045 24.7559 25.8615 24.8375 24.8031C23.799 24.165 22.9272 23.3845 22.4467 22.2511C22.242 21.7684 22.3013 21.1211 22.7783 21.0237C23.9506 20.7843 24.1941 22.9197 24.9271 23.9032C24.9271 22.9676 24.9271 22.1158 24.9271 21.2497C23.5926 20.7233 21.8311 19.8322 21.9955 18.5617C22.0646 18.0295 22.6229 18.3079 22.8516 18.5151C23.4146 19.0241 23.9438 19.5699 24.4827 20.1039C24.6234 20.2433 24.7527 20.3935 24.9609 20.6188C24.8458 19.7732 24.7441 19.0324 24.6646 18.4497C24.0752 18.3555 23.15 17.7012 22.5624 17.1023C22.4781 17.0166 22.2636 16.1041 22.7074 16.0769C23.5736 16.0232 23.8322 16.8397 24.4246 17.3588C24.2274 16.585 24.0627 15.9398 23.8922 15.2685C23.2408 14.9684 22.2767 14.557 22.4636 13.8126C22.619 13.1918 23.1346 13.9394 23.5786 14.0679C23.3321 13.4972 23.1426 12.9917 22.8987 12.5131C22.638 12.0008 22.3354 11.2614 22.8112 10.9692C23.19 10.7362 23.2873 11.5713 23.3677 11.8843C23.565 12.6498 23.7355 13.4212 23.9168 14.1905C24.1001 13.78 23.939 12.7995 24.5305 13.0298C24.7129 13.1002 24.8337 13.4858 24.8165 13.6289C24.7723 14.0063 24.6667 14.2762 24.5797 14.6477C24.5213 14.8927 24.2558 15.1362 24.2968 15.3603C24.405 15.9542 24.5999 16.534 24.777 17.1821C25.0039 16.5234 25.195 15.9357 25.4106 15.3574C25.5222 15.057 25.79 14.7647 26.165 14.9328C27.2566 15.5338 25.8903 17.1994 24.9588 18.0553C25.0644 18.7272 25.17 19.3982 25.2857 20.1388C25.9137 19.0391 26.6775 16.5316 27.8819 17.5735C29.2746 18.778 26.5043 20.0816 25.3258 20.936C25.3258 21.9131 25.3258 22.9485 25.3258 24.0954C25.4679 23.8399 25.5497 23.68 25.6429 23.5262C26.2344 22.553 26.9374 21.6748 27.9302 21.0701C28.269 20.8632 28.7949 20.5851 28.9821 21.0716C29.0224 21.1754 28.9821 21.2937 28.9821 21.4043C28.1485 22.7372 26.9765 23.7014 25.6183 24.476C25.4237 24.5872 25.2086 24.8392 25.1867 25.0449C25.073 26.1449 25.0113 27.2505 24.9488 28.3554C24.939 28.5294 24.9731 28.7313 25.0576 28.8821C25.8606 30.3043 26.0763 31.8728 26.1599 33.4529C26.2338 34.8289 26.1706 36.2012 25.8915 37.5764C25.7734 38.1583 26.1371 38.8366 26.2863 39.4706C26.3177 39.6045 26.3699 39.7341 26.4123 39.8664C26.3634 39.8873 26.3148 39.9084 26.2649 39.9287C26.062 39.4832 25.8597 39.0372 25.6512 38.5804C25.5548 38.7714 25.4548 38.971 25.3463 39.1866C25.2819 39.125 25.2326 39.0906 25.2368 39.0813C25.7805 37.9535 25.2048 36.8878 24.9998 35.8229C24.6251 33.8715 24.4359 31.9021 24.605 29.9398C24.7254 28.5467 23.8577 27.7357 23.2496 26.7652C20.5565 26.5542 19.7384 26.2772 20.1531 25.5138C20.5936 24.7048 21.5749 25.583 22.3366 25.7321C22.0667 25.36 21.8312 25.0352 21.6013 24.7189C20.1736 24.559 19.1217 23.7903 19.324 22.9285C19.515 22.653 19.7966 22.7114 20.0505 22.8165C20.3317 22.9321 20.6654 23.4561 20.9374 23.5908C20.9362 23.623 20.9362 23.6538 20.9362 23.6236C20.9579 23.6553 20.9401 23.6298 20.9232 23.6037Z" fill="#2B4769"/>
</g>
<defs>
<filter id="filter0_i_221_337" x="13.1602" y="10.9287" width="23.832" height="33" filterUnits="userSpaceOnUse" color-interpolation-filters="sRGB">
<feFlood flood-opacity="0" result="BackgroundImageFix"/>
<feBlend mode="normal" in="SourceGraphic" in2="BackgroundImageFix" result="shape"/>
<feColorMatrix in="SourceAlpha" type="matrix" values="0 0 0 0 0 0 0 0 0 0 0 0 0 0 0 0 0 0 127 0" result="hardAlpha"/>
<feOffset dy="4"/>
<feGaussianBlur stdDeviation="5"/>
<feComposite in2="hardAlpha" operator="arithmetic" k2="-1" k3="1"/>
<feColorMatrix type="matrix" values="0 0 0 0 0 0 0 0 0 0 0 0 0 0 0 0 0 0 0.45 0"/>
<feBlend mode="normal" in2="shape" result="effect1_innerShadow_221_337"/>
</filter>
</defs>
</svg>
