<svg width="248" height="370" viewBox="0 0 248 370" fill="none" xmlns="http://www.w3.org/2000/svg">
<g filter="url(#filter0_d_224_353)">
<path d="M12 15.5L116 236C110.5 237 107 241.167 105.5 242.5L12 346.5L10 355.5V6H10.5L12 15.5Z" fill="white"/>
</g>
<g filter="url(#filter1_d_224_353)">
<path d="M236 15.5L131 236C136.5 237 141 242.167 142.5 243.5L235.5 346.5L237 356L238 6H237.5L236 15.5Z" fill="white"/>
</g>
<g filter="url(#filter2_d_224_353)">
<path d="M105.14 242.621C115.069 231.618 132.335 231.618 142.263 242.621L235.715 346.195L237 356H10L11.6879 346.195L105.14 242.621Z" fill="white"/>
</g>
<defs>
<filter id="filter0_d_224_353" x="0" y="0" width="126" height="369.5" filterUnits="userSpaceOnUse" color-interpolation-filters="sRGB">
<feFlood flood-opacity="0" result="BackgroundImageFix"/>
<feColorMatrix in="SourceAlpha" type="matrix" values="0 0 0 0 0 0 0 0 0 0 0 0 0 0 0 0 0 0 127 0" result="hardAlpha"/>
<feOffset dy="4"/>
<feGaussianBlur stdDeviation="5"/>
<feComposite in2="hardAlpha" operator="out"/>
<feColorMatrix type="matrix" values="0 0 0 0 0 0 0 0 0 0 0 0 0 0 0 0 0 0 0.25 0"/>
<feBlend mode="normal" in2="BackgroundImageFix" result="effect1_dropShadow_224_353"/>
<feBlend mode="normal" in="SourceGraphic" in2="effect1_dropShadow_224_353" result="shape"/>
</filter>
<filter id="filter1_d_224_353" x="121" y="0" width="127" height="370" filterUnits="userSpaceOnUse" color-interpolation-filters="sRGB">
<feFlood flood-opacity="0" result="BackgroundImageFix"/>
<feColorMatrix in="SourceAlpha" type="matrix" values="0 0 0 0 0 0 0 0 0 0 0 0 0 0 0 0 0 0 127 0" result="hardAlpha"/>
<feOffset dy="4"/>
<feGaussianBlur stdDeviation="5"/>
<feComposite in2="hardAlpha" operator="out"/>
<feColorMatrix type="matrix" values="0 0 0 0 0 0 0 0 0 0 0 0 0 0 0 0 0 0 0.25 0"/>
<feBlend mode="normal" in2="BackgroundImageFix" result="effect1_dropShadow_224_353"/>
<feBlend mode="normal" in="SourceGraphic" in2="effect1_dropShadow_224_353" result="shape"/>
</filter>
<filter id="filter2_d_224_353" x="0" y="228.369" width="247" height="141.631" filterUnits="userSpaceOnUse" color-interpolation-filters="sRGB">
<feFlood flood-opacity="0" result="BackgroundImageFix"/>
<feColorMatrix in="SourceAlpha" type="matrix" values="0 0 0 0 0 0 0 0 0 0 0 0 0 0 0 0 0 0 127 0" result="hardAlpha"/>
<feOffset dy="4"/>
<feGaussianBlur stdDeviation="5"/>
<feComposite in2="hardAlpha" operator="out"/>
<feColorMatrix type="matrix" values="0 0 0 0 0 0 0 0 0 0 0 0 0 0 0 0 0 0 0.35 0"/>
<feBlend mode="normal" in2="BackgroundImageFix" result="effect1_dropShadow_224_353"/>
<feBlend mode="normal" in="SourceGraphic" in2="effect1_dropShadow_224_353" result="shape"/>
</filter>
</defs>
</svg>
